<svg id="Grupo_2066" data-name="Grupo 2066" xmlns="http://www.w3.org/2000/svg" xmlns:xlink="http://www.w3.org/1999/xlink" width="202.473" height="91.63" viewBox="0 0 202.473 91.63">
  <defs>
    <clipPath id="clip-path">
      <rect id="Rect치ngulo_1531" data-name="Rect치ngulo 1531" width="202.473" height="91.63" fill="none"/>
    </clipPath>
  </defs>
  <g id="Grupo_2065" data-name="Grupo 2065" clip-path="url(#clip-path)">
    <path id="Trazado_1896" data-name="Trazado 1896" d="M10.509,36.98q-2.593,0-5.163-.16A36.487,36.487,0,0,1,0,36.069V5.5a45.422,45.422,0,0,1,4.777-.615q2.594-.2,4.823-.2a32.926,32.926,0,0,1,5.527.432A13.1,13.1,0,0,1,19.471,6.59a7.751,7.751,0,0,1,2.843,2.752,8.045,8.045,0,0,1,1.024,4.208,6.678,6.678,0,0,1-3.64,5.96A7.451,7.451,0,0,1,23.793,22.6a8.893,8.893,0,0,1,1.092,4.413,8.476,8.476,0,0,1-3.617,7.461q-3.617,2.5-10.759,2.5M6.915,17.417h3.458a9.616,9.616,0,0,0,4.686-.842,2.913,2.913,0,0,0,1.41-2.706,2.783,2.783,0,0,0-1.456-2.684,9.369,9.369,0,0,0-4.277-.773q-.91,0-1.956.023c-.7.015-1.319.053-1.866.114Zm0,5.413v8.143q.773.092,1.683.136t2,.046a12.3,12.3,0,0,0,5.141-.91A3.373,3.373,0,0,0,17.7,26.88a3.3,3.3,0,0,0-1.637-3.116,9.6,9.6,0,0,0-4.686-.933Z" transform="translate(0 -1.267)" fill="#002d74"/>
    <path id="Trazado_1897" data-name="Trazado 1897" d="M35.994,27.506a14.623,14.623,0,0,1,.978-5.573,11.946,11.946,0,0,1,2.57-3.98A10.693,10.693,0,0,1,43.2,15.541a11.473,11.473,0,0,1,4.254-.819,10.572,10.572,0,0,1,8.052,3.117q2.957,3.117,2.957,9.167,0,.592-.046,1.3t-.09,1.251H42.954a4.5,4.5,0,0,0,1.956,3.321,7.866,7.866,0,0,0,4.64,1.228,19.588,19.588,0,0,0,3.662-.341,13.814,13.814,0,0,0,2.934-.842l.91,5.5a9.375,9.375,0,0,1-1.456.546,19.21,19.21,0,0,1-2.024.478q-1.116.2-2.388.341a24.06,24.06,0,0,1-2.547.136,15.088,15.088,0,0,1-5.619-.955,10.943,10.943,0,0,1-3.958-2.616,10.384,10.384,0,0,1-2.32-3.935,15.591,15.591,0,0,1-.75-4.913m15.922-2.593a7,7,0,0,0-.3-1.683,4.2,4.2,0,0,0-.773-1.456,4.129,4.129,0,0,0-1.319-1.047,4.294,4.294,0,0,0-1.979-.41,4.551,4.551,0,0,0-1.956.387,4.034,4.034,0,0,0-1.364,1.023,4.575,4.575,0,0,0-.842,1.479,9.73,9.73,0,0,0-.432,1.706Z" transform="translate(-9.744 -3.986)" fill="#002d74"/>
    <path id="Trazado_1898" data-name="Trazado 1898" d="M69.929,7.019l6.779-1.092v7.051h8.143v5.641H76.708v8.417a6.694,6.694,0,0,0,.75,3.412q.75,1.274,3.025,1.274a12.954,12.954,0,0,0,2.252-.2,11.57,11.57,0,0,0,2.116-.568l.955,5.277a19.158,19.158,0,0,1-2.73.864,15.933,15.933,0,0,1-3.685.364A12.13,12.13,0,0,1,74.8,36.7a7.209,7.209,0,0,1-2.912-2.093,7.775,7.775,0,0,1-1.523-3.253,19.161,19.161,0,0,1-.432-4.231Z" transform="translate(-18.931 -1.605)" fill="#002d74"/>
    <path id="Trazado_1899" data-name="Trazado 1899" d="M105.528,4.678q7.051,0,10.828,2.48t3.776,8.121q0,5.687-3.821,8.212t-10.919,2.525h-2.229V36.569h-7.1V5.5a40.378,40.378,0,0,1,4.913-.637q2.594-.182,4.549-.182m.455,6.051q-.775,0-1.524.045t-1.3.091v9.1h2.229a12.083,12.083,0,0,0,5.551-1,3.846,3.846,0,0,0,1.865-3.73,4.477,4.477,0,0,0-.478-2.184,3.631,3.631,0,0,0-1.364-1.387,6.155,6.155,0,0,0-2.161-.728,17.786,17.786,0,0,0-2.821-.2" transform="translate(-26.007 -1.266)" fill="#002d74"/>
    <path id="Trazado_1900" data-name="Trazado 1900" d="M141.427,35.758a16.958,16.958,0,0,1-4.8-.637,7.1,7.1,0,0,1-2.912-1.661,5.5,5.5,0,0,1-1.456-2.593,13.973,13.973,0,0,1-.387-3.435V1.092L138.652,0V26.068a8.916,8.916,0,0,0,.136,1.638,2.822,2.822,0,0,0,.523,1.228,2.769,2.769,0,0,0,1.115.819,6.1,6.1,0,0,0,1.956.409Z" transform="translate(-35.7)" fill="#002d74"/>
    <path id="Trazado_1901" data-name="Trazado 1901" d="M158.344,14.722a15.716,15.716,0,0,1,5,.682,7.776,7.776,0,0,1,3.207,1.957,7.207,7.207,0,0,1,1.707,3.094,15.279,15.279,0,0,1,.5,4.049v14.1q-1.457.319-4.049.75a38.915,38.915,0,0,1-6.278.432,19.862,19.862,0,0,1-4.208-.41,9.118,9.118,0,0,1-3.253-1.342,6.136,6.136,0,0,1-2.093-2.434,8.4,8.4,0,0,1-.728-3.685A6.983,6.983,0,0,1,149,28.37a6.473,6.473,0,0,1,2.252-2.32,10.183,10.183,0,0,1,3.23-1.251,18.141,18.141,0,0,1,3.776-.387,21.61,21.61,0,0,1,2.342.114,10.559,10.559,0,0,1,1.661.3v-.637a3.75,3.75,0,0,0-1.047-2.775,5.068,5.068,0,0,0-3.639-1.047,23.241,23.241,0,0,0-3.412.25,14.69,14.69,0,0,0-2.911.705l-.864-5.459q.591-.18,1.478-.387t1.933-.364q1.046-.159,2.207-.273t2.342-.114m.546,19.835q1,0,1.911-.045a13.233,13.233,0,0,0,1.456-.136V29.234q-.409-.09-1.228-.182a13.722,13.722,0,0,0-1.5-.091,13.552,13.552,0,0,0-1.8.114,4.71,4.71,0,0,0-1.478.432,2.535,2.535,0,0,0-1,.864,2.407,2.407,0,0,0-.364,1.364,2.325,2.325,0,0,0,1.069,2.207,5.9,5.9,0,0,0,2.935.614" transform="translate(-40.108 -3.986)" fill="#002d74"/>
    <path id="Trazado_1902" data-name="Trazado 1902" d="M202.532,15.6q-2.052,6.916-4.287,12.966T193.364,40.3a26.536,26.536,0,0,1-1.914,3.48,10.711,10.711,0,0,1-2.1,2.366,7.385,7.385,0,0,1-2.574,1.365,11.672,11.672,0,0,1-3.347.432,13.743,13.743,0,0,1-2.94-.3,13.135,13.135,0,0,1-2.209-.661l1.183-5.413a11.577,11.577,0,0,0,1.866.5,10.508,10.508,0,0,0,1.731.137,3.788,3.788,0,0,0,2.8-.979,7.873,7.873,0,0,0,1.662-2.707q-2.322-4.549-4.643-10.213A126.943,126.943,0,0,1,178.512,15.6H185.7q.456,1.774,1.074,3.845t1.3,4.185q.685,2.116,1.394,4.118t1.348,3.64q.593-1.639,1.233-3.64t1.256-4.118q.617-2.113,1.188-4.185t1.028-3.845Z" transform="translate(-48.265 -4.222)" fill="#002d74"/>
    <path id="Trazado_1903" data-name="Trazado 1903" d="M235.1,13.768c-.83-.072-1.65-.131-2.465-.184v0s-.192-.012-.477-.028l-.355-.023v0l-.267-.013a63.374,63.374,0,0,0,4.175,8.708c14.914-.228,26.822.905,26.881,3.763.034,1.662-3.964,3.234-10.315,4.376-.053.088-.107.174-.161.262,7.679-.888,12.784-2.935,13.025-5.722.406-4.678-13.044-9.665-30.041-11.141" transform="translate(-62.682 -3.661)" fill="#00ae42"/>
    <path id="Trazado_1904" data-name="Trazado 1904" d="M226.221,6.021c1.288-.85,4.365,1.282,8.282,5.4l.457.048c-4.545-5.413-8.662-8.242-11.015-7.029-4.174,2.151-1.219,16.189,6.6,31.354q.434.841.876,1.661h0l.609,1.118.074.136c.064.119.13.239.2.359a84.357,84.357,0,0,0,4.934-8.525c-8.067-12.4-13.382-22.961-11.009-24.526" transform="translate(-60.113 -1.127)" fill="#ffcd00"/>
    <path id="Trazado_1905" data-name="Trazado 1905" d="M245.306,28.326c-6.149,13.8-12.295,24.316-14.934,23.151-1.576-.7-1.235-5.276.575-11.887l-.121-.254c-2.649,7.678-3.047,13.47-.549,14.909,4.069,2.344,14.271-7.741,22.788-22.524q.774-1.344,1.491-2.676c-2.57-.354-5.715-.592-9.25-.721" transform="translate(-61.888 -7.668)" fill="#3cb4e5"/>
    <path id="Trazado_1906" data-name="Trazado 1906" d="M184.045,112.615H20.281A16.752,16.752,0,0,1,3.529,95.863V94.268A16.752,16.752,0,0,1,20.281,77.516H184.045A16.753,16.753,0,0,1,200.8,94.268v1.594a16.752,16.752,0,0,1-16.752,16.752" transform="translate(-0.955 -20.985)" fill="#00ae42"/>
    <path id="Trazado_1907" data-name="Trazado 1907" d="M60.569,100.637h4.478c-.608,4.035-4.11,5.546-7.942,5.546-4.2,0-8.053-1.787-8.053-6.725,0-4.92,3.851-6.708,8.053-6.708,3.832,0,7.334,1.511,7.942,5.547H60.569A3.124,3.124,0,0,0,57.1,95.7c-2.488,0-3.631,1.492-3.631,3.759,0,2.285,1.143,3.778,3.631,3.778a3.124,3.124,0,0,0,3.464-2.6" transform="translate(-13.279 -25.109)" fill="#fff"/>
    <path id="Trazado_1908" data-name="Trazado 1908" d="M93.44,104.014H87.212L86.4,106H81.849l5.952-12.9H92.85L98.822,106H94.269Zm-1.2-2.986-1.917-4.663-1.9,4.663Z" transform="translate(-22.158 -25.205)" fill="#fff"/>
    <path id="Trazado_1909" data-name="Trazado 1909" d="M132.311,101.816c0,3.1-2.635,4.367-7.7,4.367-5.454,0-7.61-1.75-7.61-4.46h4.57c0,1.2,1.474,1.53,3.28,1.53,1.733,0,2.765-.258,2.765-.977,0-.867-1.254-.811-4.958-1.383-3.962-.608-5.362-1.437-5.362-4.017,0-2.617,2.082-4.128,7.094-4.128,5.473,0,7.1,1.972,7.1,4.2h-4.441c0-.885-1.032-1.272-2.709-1.272-1.769,0-2.691.258-2.691,1,0,.885,1.6.958,3.815,1.179,4.036.424,6.855.7,6.855,3.962" transform="translate(-31.674 -25.109)" fill="#fff"/>
    <rect id="Rect치ngulo_1530" data-name="Rect치ngulo 1530" width="4.386" height="12.899" transform="translate(110.404 67.9)" fill="#fff"/>
    <path id="Trazado_1910" data-name="Trazado 1910" d="M186.4,93.1V106h-4.625l-5.86-7.665V106h-4.367V93.1h4.625l5.86,7.684V93.1Z" transform="translate(-46.442 -25.205)" fill="#fff"/>
    <path id="Trazado_1911" data-name="Trazado 1911" d="M222.35,99.458c0,4.938-4.22,6.726-8.4,6.726s-8.385-1.788-8.385-6.726c0-4.92,4.2-6.708,8.385-6.708s8.4,1.787,8.4,6.708m-4.441,0c0-2.34-1.419-3.759-3.962-3.759-2.525,0-3.961,1.419-3.961,3.759,0,2.359,1.437,3.778,3.961,3.778,2.543,0,3.962-1.419,3.962-3.778" transform="translate(-55.649 -25.109)" fill="#fff"/>
  </g>
</svg>
