<svg id="Grupo_2068" data-name="Grupo 2068" xmlns="http://www.w3.org/2000/svg" xmlns:xlink="http://www.w3.org/1999/xlink" width="202.813" height="91.784" viewBox="0 0 202.813 91.784">
  <defs>
    <clipPath id="clip-path">
      <rect id="Rectángulo_1532" data-name="Rectángulo 1532" width="202.813" height="91.784" fill="none"/>
    </clipPath>
  </defs>
  <g id="Grupo_2067" data-name="Grupo 2067" clip-path="url(#clip-path)">
    <path id="Trazado_1912" data-name="Trazado 1912" d="M10.527,37.034q-2.6,0-5.172-.16A36.548,36.548,0,0,1,0,36.122V5.5a45.5,45.5,0,0,1,4.785-.616q2.6-.2,4.831-.2a32.981,32.981,0,0,1,5.537.432A13.122,13.122,0,0,1,19.5,6.593,7.764,7.764,0,0,1,22.352,9.35a8.058,8.058,0,0,1,1.026,4.215,6.689,6.689,0,0,1-3.646,5.97,7.463,7.463,0,0,1,4.1,3.1,8.908,8.908,0,0,1,1.094,4.42A8.49,8.49,0,0,1,21.3,34.527q-3.623,2.506-10.777,2.506m-3.6-19.6H10.39a9.632,9.632,0,0,0,4.694-.844A2.918,2.918,0,0,0,16.5,13.884,2.788,2.788,0,0,0,15.038,11.2a9.385,9.385,0,0,0-4.284-.774q-.912,0-1.959.023c-.7.015-1.321.053-1.869.114Zm0,5.423v8.157q.775.092,1.686.137t2.005.046a12.316,12.316,0,0,0,5.149-.912,3.379,3.379,0,0,0,1.959-3.372,3.3,3.3,0,0,0-1.64-3.121,9.616,9.616,0,0,0-4.694-.934Z" transform="translate(0 -1.261)" fill="#002d74"/>
    <path id="Trazado_1913" data-name="Trazado 1913" d="M35.994,27.528a14.647,14.647,0,0,1,.98-5.583,11.966,11.966,0,0,1,2.574-3.987,10.711,10.711,0,0,1,3.669-2.416,11.493,11.493,0,0,1,4.261-.82,10.59,10.59,0,0,1,8.066,3.122q2.962,3.122,2.962,9.182,0,.593-.046,1.3t-.091,1.254h-15.4a4.509,4.509,0,0,0,1.959,3.327,7.88,7.88,0,0,0,4.648,1.23,19.621,19.621,0,0,0,3.669-.342,13.837,13.837,0,0,0,2.939-.843l.912,5.514a9.392,9.392,0,0,1-1.458.547,19.243,19.243,0,0,1-2.028.478q-1.118.2-2.392.342a24.1,24.1,0,0,1-2.552.137,15.113,15.113,0,0,1-5.629-.957,10.961,10.961,0,0,1-3.964-2.62,10.4,10.4,0,0,1-2.324-3.942,15.617,15.617,0,0,1-.752-4.921m15.949-2.6a7.011,7.011,0,0,0-.3-1.686,4.211,4.211,0,0,0-.774-1.458,4.136,4.136,0,0,0-1.321-1.048,4.3,4.3,0,0,0-1.983-.411,4.558,4.558,0,0,0-1.959.388,4.041,4.041,0,0,0-1.367,1.025,4.583,4.583,0,0,0-.844,1.481,9.747,9.747,0,0,0-.432,1.709Z" transform="translate(-9.7 -3.967)" fill="#002d74"/>
    <path id="Trazado_1914" data-name="Trazado 1914" d="M69.929,7.021l6.79-1.094V12.99h8.157v5.65H76.719v8.431a6.7,6.7,0,0,0,.752,3.417q.752,1.277,3.03,1.276a12.976,12.976,0,0,0,2.256-.205,11.589,11.589,0,0,0,2.119-.569l.957,5.286a19.19,19.19,0,0,1-2.734.866,15.96,15.96,0,0,1-3.691.365,12.15,12.15,0,0,1-4.6-.752,7.222,7.222,0,0,1-2.917-2.1A7.788,7.788,0,0,1,70.362,31.4a19.193,19.193,0,0,1-.433-4.238Z" transform="translate(-18.845 -1.597)" fill="#002d74"/>
    <path id="Trazado_1915" data-name="Trazado 1915" d="M105.544,4.678q7.063,0,10.846,2.484t3.783,8.134q0,5.7-3.828,8.225T105.408,26.05h-2.233V36.623H96.066V5.5a40.446,40.446,0,0,1,4.921-.638q2.6-.182,4.557-.183M106,10.739q-.776,0-1.527.045t-1.3.091v9.114h2.233a12.1,12.1,0,0,0,5.56-1,3.853,3.853,0,0,0,1.868-3.737,4.485,4.485,0,0,0-.478-2.188,3.637,3.637,0,0,0-1.367-1.389,6.166,6.166,0,0,0-2.164-.729A17.816,17.816,0,0,0,106,10.739" transform="translate(-25.889 -1.261)" fill="#002d74"/>
    <path id="Trazado_1916" data-name="Trazado 1916" d="M141.443,35.818a16.987,16.987,0,0,1-4.807-.638,7.116,7.116,0,0,1-2.917-1.663,5.513,5.513,0,0,1-1.458-2.6,14,14,0,0,1-.387-3.441V1.094L138.663,0V26.112a8.931,8.931,0,0,0,.137,1.641,2.827,2.827,0,0,0,.524,1.23,2.774,2.774,0,0,0,1.117.82,6.109,6.109,0,0,0,1.959.41Z" transform="translate(-35.539)" fill="#002d74"/>
    <path id="Trazado_1917" data-name="Trazado 1917" d="M158.361,14.722a15.742,15.742,0,0,1,5.013.683,7.789,7.789,0,0,1,3.213,1.96,7.219,7.219,0,0,1,1.709,3.1,15.3,15.3,0,0,1,.5,4.056V38.646q-1.46.32-4.056.752a38.98,38.98,0,0,1-6.289.433,19.9,19.9,0,0,1-4.215-.411,9.133,9.133,0,0,1-3.258-1.344,6.146,6.146,0,0,1-2.1-2.438,8.409,8.409,0,0,1-.729-3.691A7,7,0,0,1,149,28.393a6.484,6.484,0,0,1,2.256-2.324,10.2,10.2,0,0,1,3.235-1.254,18.171,18.171,0,0,1,3.783-.387,21.645,21.645,0,0,1,2.346.114,10.576,10.576,0,0,1,1.663.3V24.2a3.757,3.757,0,0,0-1.048-2.78,5.077,5.077,0,0,0-3.645-1.048,23.281,23.281,0,0,0-3.418.251,14.715,14.715,0,0,0-2.916.706l-.866-5.469q.592-.181,1.481-.387t1.937-.365q1.048-.159,2.21-.273t2.346-.114m.547,19.868q1,0,1.914-.045a13.256,13.256,0,0,0,1.458-.137v-5.15q-.41-.09-1.23-.182a13.745,13.745,0,0,0-1.5-.091,13.575,13.575,0,0,0-1.8.114,4.718,4.718,0,0,0-1.481.433,2.54,2.54,0,0,0-1,.866,2.411,2.411,0,0,0-.365,1.367,2.329,2.329,0,0,0,1.071,2.211,5.912,5.912,0,0,0,2.94.615" transform="translate(-39.927 -3.967)" fill="#002d74"/>
    <path id="Trazado_1918" data-name="Trazado 1918" d="M202.573,15.6q-2.056,6.927-4.294,12.988t-4.889,11.757a26.584,26.584,0,0,1-1.917,3.486,10.729,10.729,0,0,1-2.1,2.37,7.4,7.4,0,0,1-2.579,1.368,11.692,11.692,0,0,1-3.353.433,13.767,13.767,0,0,1-2.945-.3,13.157,13.157,0,0,1-2.213-.662l1.185-5.423a11.6,11.6,0,0,0,1.869.5,10.525,10.525,0,0,0,1.734.137,3.794,3.794,0,0,0,2.8-.98,7.886,7.886,0,0,0,1.665-2.712q-2.326-4.556-4.651-10.23A127.152,127.152,0,0,1,178.512,15.6h7.2q.457,1.777,1.076,3.851t1.3,4.192q.686,2.119,1.4,4.124t1.351,3.646q.594-1.641,1.235-3.646t1.258-4.124q.618-2.117,1.19-4.192t1.029-3.851Z" transform="translate(-48.047 -4.203)" fill="#002d74"/>
    <path id="Trazado_1919" data-name="Trazado 1919" d="M235.11,13.7c-.831-.072-1.653-.131-2.469-.184v0s-.192-.012-.478-.028l-.356-.023v0l-.267-.013a63.48,63.48,0,0,0,4.182,8.722c14.939-.229,26.867.907,26.926,3.769.034,1.665-3.971,3.24-10.332,4.384-.053.088-.107.175-.161.262,7.692-.89,12.805-2.94,13.047-5.732.407-4.685-13.066-9.681-30.092-11.159" transform="translate(-62.399 -3.627)" fill="#00ae42"/>
    <path id="Trazado_1920" data-name="Trazado 1920" d="M226.228,5.959c1.29-.851,4.372,1.284,8.3,5.412l.458.048C230.429,6,226.3,3.163,223.948,4.378c-4.181,2.155-1.221,16.216,6.609,31.407q.435.843.877,1.664h0l.61,1.12.075.136c.064.119.13.24.2.359a84.5,84.5,0,0,0,4.942-8.54c-8.08-12.42-13.4-23-11.028-24.567" transform="translate(-59.841 -1.105)" fill="#ffcd00"/>
    <path id="Trazado_1921" data-name="Trazado 1921" d="M245.334,28.261c-6.16,13.823-12.316,24.357-14.959,23.19-1.579-.7-1.237-5.284.576-11.907l-.121-.254c-2.654,7.691-3.052,13.492-.55,14.934,4.076,2.348,14.3-7.754,22.826-22.562q.776-1.347,1.494-2.68c-2.574-.355-5.724-.593-9.266-.722" transform="translate(-61.608 -7.616)" fill="#3cb4e5"/>
    <path id="Trazado_1922" data-name="Trazado 1922" d="M184.387,112.674H20.348a16.78,16.78,0,0,1-16.78-16.78V94.3a16.78,16.78,0,0,1,16.78-16.78H184.387a16.781,16.781,0,0,1,16.78,16.78v1.6a16.78,16.78,0,0,1-16.78,16.78" transform="translate(-0.962 -20.89)" fill="#ffcd00"/>
    <path id="Trazado_1923" data-name="Trazado 1923" d="M76.025,97.479c0,3.249-2.307,4.522-5.87,4.522H65.873v4.024H61.5V93.105h9.174c3.563,0,5.352,1.735,5.352,4.374m-4.448,0c0-1.015-.646-1.385-1.938-1.385H65.873v2.953h3.766c1.365,0,1.938-.572,1.938-1.568" transform="translate(-16.573 -25.091)" fill="#fff"/>
    <path id="Trazado_1924" data-name="Trazado 1924" d="M111.087,98.169c0,4.947-4.227,6.737-8.416,6.737s-8.4-1.79-8.4-6.737c0-4.929,4.208-6.719,8.4-6.719s8.416,1.79,8.416,6.719m-4.449,0c0-2.344-1.421-3.766-3.967-3.766-2.53,0-3.97,1.422-3.97,3.766,0,2.363,1.44,3.784,3.97,3.784,2.547,0,3.967-1.421,3.967-3.784m-.055-10.245-2.622,2.732H100.99l1.568-2.732Z" transform="translate(-25.405 -23.695)" fill="#fff"/>
    <path id="Trazado_1925" data-name="Trazado 1925" d="M137.3,100.691l-1.994,1.772v3.563h-4.375V93.1h4.375V97.83L140.5,93.1H145.9l-5.63,4.984,5.889,7.938H141.05Z" transform="translate(-35.286 -25.091)" fill="#fff"/>
    <path id="Trazado_1926" data-name="Trazado 1926" d="M177.842,106.025h-12.92V93.1h12.736v2.989H169.3V97.9h7.845v2.991H169.3v2.159h8.546Z" transform="translate(-44.445 -25.091)" fill="#fff"/>
    <path id="Trazado_1927" data-name="Trazado 1927" d="M204.314,101.835H200.88v4.19h-4.374V93.105H205.7c3.563,0,5.519,1.642,5.519,4.281a3.9,3.9,0,0,1-2.639,3.877l3.064,4.762h-4.707Zm-3.433-2.953h4.19c1.292,0,1.7-.664,1.7-1.5,0-.849-.535-1.292-1.7-1.292h-4.19Z" transform="translate(-52.957 -25.091)" fill="#fff"/>
  </g>
</svg>
