<svg id="Grupo_2064" data-name="Grupo 2064" xmlns="http://www.w3.org/2000/svg" xmlns:xlink="http://www.w3.org/1999/xlink" width="205.344" height="91.704" viewBox="0 0 205.344 91.704">
  <defs>
    <clipPath id="clip-path">
      <rect id="Rectángulo_1529" data-name="Rectángulo 1529" width="205.344" height="91.704" fill="none"/>
    </clipPath>
  </defs>
  <g id="Grupo_2063" data-name="Grupo 2063" clip-path="url(#clip-path)">
    <path id="Trazado_1879" data-name="Trazado 1879" d="M180.663,112.643H16.766A16.766,16.766,0,0,1,0,95.877v-1.6A16.766,16.766,0,0,1,16.766,77.516h163.9a16.766,16.766,0,0,1,16.766,16.766v1.6a16.766,16.766,0,0,1-16.766,16.766" transform="translate(0 -20.939)" fill="#3cb4e5"/>
    <path id="Trazado_1880" data-name="Trazado 1880" d="M55.644,101.824c0,3.1-2.637,4.37-7.709,4.37-5.459,0-7.617-1.752-7.617-4.463h4.574c0,1.2,1.475,1.531,3.283,1.531,1.733,0,2.766-.258,2.766-.977,0-.868-1.255-.812-4.962-1.384-3.965-.609-5.367-1.438-5.367-4.02,0-2.619,2.085-4.132,7.1-4.132,5.478,0,7.1,1.974,7.1,4.206H50.369c0-.885-1.033-1.273-2.711-1.273-1.771,0-2.693.258-2.693,1,0,.885,1.6.959,3.817,1.18,4.039.424,6.861.7,6.861,3.965" transform="translate(-10.891 -25.054)" fill="#fff"/>
    <path id="Trazado_1881" data-name="Trazado 1881" d="M89.222,97.475c0,3.246-2.3,4.518-5.865,4.518H79.079v4.021H74.708V93.105h9.166c3.56,0,5.348,1.733,5.348,4.37m-4.444,0c0-1.015-.646-1.384-1.936-1.384H79.079v2.951h3.763c1.364,0,1.936-.571,1.936-1.567" transform="translate(-20.181 -25.15)" fill="#fff"/>
    <path id="Trazado_1882" data-name="Trazado 1882" d="M124.282,99.463c0,4.942-4.223,6.732-8.41,6.732s-8.391-1.79-8.391-6.732c0-4.924,4.2-6.713,8.391-6.713s8.41,1.789,8.41,6.713m-4.444,0c0-2.342-1.42-3.763-3.965-3.763-2.527,0-3.965,1.42-3.965,3.763,0,2.36,1.439,3.781,3.965,3.781,2.545,0,3.965-1.42,3.965-3.781" transform="translate(-29.033 -25.054)" fill="#fff"/>
    <path id="Trazado_1883" data-name="Trazado 1883" d="M151.946,101.827h-3.43v4.187h-4.371V93.1h9.185c3.56,0,5.514,1.641,5.514,4.278a3.9,3.9,0,0,1-2.637,3.873l3.062,4.758h-4.7Zm-3.43-2.951H152.7c1.291,0,1.7-.663,1.7-1.494,0-.848-.535-1.29-1.7-1.29h-4.187Z" transform="translate(-38.937 -25.15)" fill="#fff"/>
    <path id="Trazado_1884" data-name="Trazado 1884" d="M191.391,96.091H186.5v9.923h-4.371V96.091h-4.887V93.1h14.146Z" transform="translate(-47.878 -25.15)" fill="#fff"/>
    <path id="Trazado_1885" data-name="Trazado 1885" d="M224.587,101.824c0,3.1-2.638,4.37-7.71,4.37-5.459,0-7.617-1.752-7.617-4.463h4.574c0,1.2,1.476,1.531,3.283,1.531,1.733,0,2.766-.258,2.766-.977,0-.868-1.254-.812-4.961-1.384-3.965-.609-5.367-1.438-5.367-4.02,0-2.619,2.084-4.132,7.1-4.132,5.478,0,7.1,1.974,7.1,4.206h-4.445c0-.885-1.033-1.273-2.711-1.273-1.771,0-2.693.258-2.693,1,0,.885,1.6.959,3.817,1.18,4.039.424,6.861.7,6.861,3.965" transform="translate(-56.526 -25.054)" fill="#fff"/>
    <path id="Trazado_1886" data-name="Trazado 1886" d="M14.225,37.006q-2.595,0-5.168-.16a36.517,36.517,0,0,1-5.35-.751V5.5a45.46,45.46,0,0,1,4.781-.615q2.6-.2,4.826-.2a32.956,32.956,0,0,1,5.532.432,13.111,13.111,0,0,1,4.348,1.48,7.757,7.757,0,0,1,2.846,2.755,8.052,8.052,0,0,1,1.025,4.211,6.683,6.683,0,0,1-3.643,5.965,7.457,7.457,0,0,1,4.1,3.1,8.9,8.9,0,0,1,1.093,4.416,8.482,8.482,0,0,1-3.62,7.467q-3.619,2.5-10.768,2.5m-3.6-19.578h3.46a9.624,9.624,0,0,0,4.689-.843,2.916,2.916,0,0,0,1.412-2.709,2.785,2.785,0,0,0-1.457-2.687,9.377,9.377,0,0,0-4.28-.774q-.911,0-1.958.023c-.7.015-1.32.053-1.867.114Zm0,5.418V31q.774.092,1.685.136t2,.046a12.3,12.3,0,0,0,5.145-.911A3.376,3.376,0,0,0,21.419,26.9a3.3,3.3,0,0,0-1.639-3.119,9.608,9.608,0,0,0-4.69-.934Z" transform="translate(-1.002 -1.264)" fill="#002d74"/>
    <path id="Trazado_1887" data-name="Trazado 1887" d="M39.7,27.517a14.634,14.634,0,0,1,.979-5.578,11.967,11.967,0,0,1,2.572-3.984,10.7,10.7,0,0,1,3.666-2.414,11.477,11.477,0,0,1,4.257-.82,10.583,10.583,0,0,1,8.059,3.119q2.958,3.119,2.96,9.175c0,.395-.017.827-.047,1.3s-.061.888-.091,1.252H46.668a4.5,4.5,0,0,0,1.958,3.324,7.875,7.875,0,0,0,4.645,1.229,19.6,19.6,0,0,0,3.665-.342,13.833,13.833,0,0,0,2.937-.842l.911,5.509a9.383,9.383,0,0,1-1.457.547,19.27,19.27,0,0,1-2.026.478q-1.118.2-2.391.342a24.069,24.069,0,0,1-2.549.136,15.093,15.093,0,0,1-5.623-.956,10.955,10.955,0,0,1-3.962-2.618,10.392,10.392,0,0,1-2.322-3.938,15.624,15.624,0,0,1-.751-4.917m15.935-2.6a7,7,0,0,0-.3-1.685,4.2,4.2,0,0,0-.774-1.457,4.133,4.133,0,0,0-1.32-1.047,4.294,4.294,0,0,0-1.98-.41,4.552,4.552,0,0,0-1.958.388,4.047,4.047,0,0,0-1.366,1.024,4.564,4.564,0,0,0-.842,1.48,9.742,9.742,0,0,0-.433,1.707Z" transform="translate(-10.725 -3.977)" fill="#002d74"/>
    <path id="Trazado_1888" data-name="Trazado 1888" d="M73.637,7.02l6.784-1.093v7.057h8.15V18.63h-8.15v8.423a6.7,6.7,0,0,0,.751,3.414q.751,1.275,3.028,1.275a12.965,12.965,0,0,0,2.254-.205,11.579,11.579,0,0,0,2.117-.569l.956,5.281a19.173,19.173,0,0,1-2.732.865,15.946,15.946,0,0,1-3.688.364,12.14,12.14,0,0,1-4.6-.751,7.21,7.21,0,0,1-2.914-2.095,7.781,7.781,0,0,1-1.525-3.255,19.177,19.177,0,0,1-.433-4.235Z" transform="translate(-19.891 -1.601)" fill="#002d74"/>
    <path id="Trazado_1889" data-name="Trazado 1889" d="M109.244,4.678q7.057,0,10.836,2.482t3.779,8.127q0,5.692-3.825,8.218t-10.928,2.527h-2.231V36.6h-7.1V5.5a40.411,40.411,0,0,1,4.917-.637q2.6-.182,4.553-.182m.455,6.056q-.775,0-1.525.045t-1.3.091v9.106h2.231a12.093,12.093,0,0,0,5.555-1,3.849,3.849,0,0,0,1.866-3.733,4.481,4.481,0,0,0-.478-2.186,3.634,3.634,0,0,0-1.366-1.388,6.161,6.161,0,0,0-2.163-.728,17.8,17.8,0,0,0-2.823-.205" transform="translate(-26.951 -1.264)" fill="#002d74"/>
    <path id="Trazado_1890" data-name="Trazado 1890" d="M145.142,35.787a16.972,16.972,0,0,1-4.8-.637,7.11,7.11,0,0,1-2.914-1.662,5.509,5.509,0,0,1-1.457-2.6,13.985,13.985,0,0,1-.387-3.438V1.093L142.365,0V26.089a8.923,8.923,0,0,0,.136,1.639,2.825,2.825,0,0,0,.523,1.229,2.771,2.771,0,0,0,1.116.82,6.1,6.1,0,0,0,1.958.409Z" transform="translate(-36.624)" fill="#002d74"/>
    <path id="Trazado_1891" data-name="Trazado 1891" d="M162.061,14.722a15.729,15.729,0,0,1,5.008.682,7.783,7.783,0,0,1,3.21,1.958,7.213,7.213,0,0,1,1.708,3.1,15.291,15.291,0,0,1,.5,4.052V38.625q-1.458.32-4.052.751a38.946,38.946,0,0,1-6.283.433,19.879,19.879,0,0,1-4.211-.41,9.125,9.125,0,0,1-3.255-1.343,6.141,6.141,0,0,1-2.095-2.436,8.4,8.4,0,0,1-.728-3.688,6.989,6.989,0,0,1,.842-3.552,6.479,6.479,0,0,1,2.254-2.322,10.192,10.192,0,0,1,3.233-1.252,18.155,18.155,0,0,1,3.779-.387,21.627,21.627,0,0,1,2.344.114,10.567,10.567,0,0,1,1.662.3v-.637a3.753,3.753,0,0,0-1.047-2.777,5.073,5.073,0,0,0-3.642-1.047,23.26,23.26,0,0,0-3.415.25,14.7,14.7,0,0,0-2.914.706l-.865-5.464q.591-.181,1.479-.387t1.935-.364q1.047-.159,2.209-.273t2.344-.114m.547,19.851q1,0,1.912-.045a13.244,13.244,0,0,0,1.457-.136V29.246q-.409-.09-1.229-.182a13.733,13.733,0,0,0-1.5-.091,13.563,13.563,0,0,0-1.8.114,4.714,4.714,0,0,0-1.479.433,2.53,2.53,0,0,0-1,.865,2.4,2.4,0,0,0-.365,1.366,2.327,2.327,0,0,0,1.07,2.209,5.907,5.907,0,0,0,2.937.615" transform="translate(-41.022 -3.977)" fill="#002d74"/>
    <path id="Trazado_1892" data-name="Trazado 1892" d="M206.26,15.6q-2.054,6.921-4.29,12.976t-4.885,11.747a26.561,26.561,0,0,1-1.915,3.483,10.72,10.72,0,0,1-2.1,2.368,7.391,7.391,0,0,1-2.576,1.366,11.681,11.681,0,0,1-3.35.433,13.755,13.755,0,0,1-2.942-.3,13.146,13.146,0,0,1-2.211-.661l1.184-5.418a11.586,11.586,0,0,0,1.867.5,10.516,10.516,0,0,0,1.732.137,3.791,3.791,0,0,0,2.8-.979,7.88,7.88,0,0,0,1.663-2.709q-2.324-4.552-4.647-10.221A127.044,127.044,0,0,1,182.22,15.6h7.194q.457,1.776,1.075,3.848t1.3,4.188q.685,2.117,1.395,4.121t1.35,3.643q.593-1.64,1.234-3.643t1.257-4.121q.617-2.115,1.189-4.188t1.028-3.848Z" transform="translate(-49.161 -4.213)" fill="#002d74"/>
    <path id="Trazado_1893" data-name="Trazado 1893" d="M238.815,13.7c-.831-.072-1.652-.131-2.467-.184v0s-.192-.012-.477-.028l-.355-.023v0l-.267-.013a63.423,63.423,0,0,0,4.179,8.715c14.926-.228,26.844.906,26.9,3.766.034,1.663-3.968,3.237-10.323,4.38-.053.088-.107.174-.161.262,7.686-.889,12.794-2.938,13.036-5.727.407-4.681-13.055-9.673-30.066-11.15" transform="translate(-63.546 -3.635)" fill="#00ae42"/>
    <path id="Trazado_1894" data-name="Trazado 1894" d="M229.932,5.957c1.289-.85,4.368,1.283,8.288,5.407l.458.048c-4.549-5.418-8.669-8.249-11.024-7.035-4.177,2.153-1.22,16.2,6.6,31.38q.435.842.877,1.663h0l.609,1.119.074.136c.064.119.13.239.2.359a84.428,84.428,0,0,0,4.938-8.532c-8.073-12.409-13.392-22.979-11.018-24.546" transform="translate(-60.983 -1.107)" fill="#ffcd00"/>
    <path id="Trazado_1895" data-name="Trazado 1895" d="M249.028,28.261c-6.154,13.811-12.3,24.336-14.946,23.17-1.577-.7-1.236-5.28.577-11.9l-.122-.254c-2.652,7.684-3.049,13.481-.55,14.922,4.072,2.346,14.283-7.747,22.806-22.542q.775-1.346,1.493-2.678c-2.572-.355-5.719-.593-9.258-.721" transform="translate(-62.754 -7.634)" fill="#3cb4e5"/>
  </g>
</svg>
