<svg xmlns="http://www.w3.org/2000/svg" width="53" height="53" viewBox="0 0 53 53" fill="none">
  <path d="M26.8699 0.281982C12.5066 0.281982 0.869873 11.9258 0.869873 26.282C0.869873 40.6382 12.5137 52.282 26.8699 52.282C41.2261 52.282 52.87 40.6382 52.87 26.282C52.87 11.9258 41.2261 0.281982 26.8699 0.281982ZM19.1837 28.3431H14.6535V32.7373H9.71553V28.3431H5.18533V23.677H9.71553V19.2828H14.6535V23.677H19.1837V28.3431ZM30.2693 35.6214H23.7925V21.2938H20.5004V16.4059H30.2693V35.6214ZM45.2767 35.3065C43.9885 35.8074 42.4928 36.0579 40.7895 36.0579C39.0862 36.0579 37.5905 35.8074 36.3023 35.3065C35.0141 34.8055 33.9979 34.0898 33.2679 33.1666C32.5379 32.2434 32.1657 31.1628 32.1657 29.9176C32.1657 28.6723 32.5379 27.6131 33.2894 26.7329C33.7045 26.2462 34.2055 25.8383 34.7852 25.4804C34.456 25.23 34.1554 24.9652 33.8906 24.6646C33.1964 23.8487 32.8456 22.8683 32.8456 21.7161C32.8456 20.5638 33.1821 19.5333 33.8619 18.6817C34.5347 17.83 35.4721 17.1716 36.6601 16.6921C37.8481 16.2198 39.2222 15.9765 40.7752 15.9765C42.3282 15.9765 43.7022 16.2126 44.8902 16.6921C46.0782 17.1716 47.0159 17.83 47.6886 18.6817C48.3685 19.5333 48.7048 20.5424 48.7048 21.7161C48.7048 22.8897 48.3541 23.8487 47.6599 24.6646C47.4023 24.9652 47.0946 25.2371 46.7725 25.4876C47.3522 25.8454 47.853 26.2534 48.2681 26.74C49.0196 27.6203 49.3918 28.6795 49.3918 29.9247C49.3918 31.17 49.0268 32.2506 48.2968 33.1738C47.5668 34.097 46.5506 34.8127 45.2624 35.3136L45.2767 35.3065Z" fill="white"/>
  <path d="M40.7902 27.6847C40.1676 27.6847 39.6595 27.8636 39.2659 28.2214C38.8723 28.5793 38.6719 29.0659 38.6719 29.6885C38.6719 30.3112 38.8652 30.7978 39.2659 31.1556C39.6595 31.5135 40.1676 31.6924 40.7902 31.6924C41.4128 31.6924 41.921 31.5135 42.3147 31.1556C42.7083 30.7978 42.9085 30.3112 42.9085 29.6885C42.9085 29.0659 42.7083 28.5793 42.3147 28.2214C41.921 27.8636 41.4128 27.6847 40.7902 27.6847Z" fill="white"/>
  <path d="M40.7896 23.6268C41.2262 23.6268 41.5983 23.4837 41.8918 23.1903C42.1852 22.8968 42.3282 22.4961 42.3282 21.9808C42.3282 21.4655 42.178 21.0433 41.8918 20.757C41.5983 20.4708 41.2333 20.3348 40.7896 20.3348C40.3459 20.3348 39.9881 20.4779 39.6946 20.757C39.4012 21.0433 39.2582 21.4512 39.2582 21.9808C39.2582 22.5104 39.4012 22.8968 39.6946 23.1903C39.9881 23.4837 40.3531 23.6268 40.7896 23.6268Z" fill="white"/>
</svg>