<svg xmlns="http://www.w3.org/2000/svg" width="94" height="34" viewBox="0 0 94 34" fill="none">
  <path d="M7.35878 30.2713C6.39979 30.2713 5.51222 30.0995 4.69637 29.756C3.87336 29.4124 3.16487 28.9401 2.57087 28.3461C1.97687 27.7521 1.50457 27.0436 1.17537 26.2349C0.839006 25.4191 0.674438 24.5531 0.674438 23.6299V23.5941C0.674438 22.6709 0.846162 21.805 1.17537 21.0034C1.51173 20.1947 1.97687 19.4934 2.57087 18.8851C3.16487 18.2767 3.88053 17.7972 4.71069 17.4466C5.54086 17.0959 6.46413 16.917 7.46606 16.917C8.07437 16.917 8.63265 16.9671 9.13361 17.0601C9.63457 17.1603 10.0925 17.2963 10.5076 17.4681C10.9155 17.6398 11.2949 17.8474 11.6456 18.0979C11.9891 18.3483 12.3182 18.6131 12.6116 18.9137L10.7867 20.9963C10.2785 20.5454 9.75615 20.1804 9.22656 19.9228C8.70413 19.6651 8.11014 19.5363 7.45173 19.5363C6.90783 19.5363 6.39963 19.6365 5.93445 19.8512C5.46927 20.0588 5.06854 20.345 4.73218 20.7172C4.39582 21.0893 4.1383 21.5116 3.95222 21.9982C3.76615 22.4849 3.67302 23.0001 3.67302 23.5584V23.5941C3.67302 24.1452 3.76615 24.6748 3.95222 25.1614C4.1383 25.6552 4.39582 26.0846 4.72502 26.4496C5.05422 26.8218 5.44795 27.108 5.91313 27.3299C6.37831 27.5446 6.89352 27.6519 7.45173 27.6519C8.19602 27.6519 8.82573 27.5159 9.341 27.244C9.85628 26.972 10.3645 26.6071 10.8798 26.1347L12.7048 27.9596C12.3684 28.3175 12.0247 28.6395 11.6597 28.9187C11.3019 29.1978 10.9084 29.4411 10.479 29.6486C10.0496 29.849 9.57726 30.0064 9.06914 30.1066C8.56102 30.214 7.98856 30.2641 7.35878 30.2641" fill="white"/>
  <path d="M19.0228 30.2713C18.2499 30.2713 17.5342 30.1424 16.883 29.8777C16.2246 29.6129 15.6593 29.2479 15.1798 28.7898C14.7003 28.3318 14.3281 27.7879 14.049 27.1653C13.777 26.5426 13.641 25.8771 13.641 25.1614V25.1257C13.641 24.41 13.777 23.7444 14.049 23.1218C14.3209 22.4992 14.7003 21.9553 15.1869 21.4901C15.6736 21.0249 16.246 20.6528 16.8973 20.3808C17.5557 20.1089 18.2785 19.98 19.0586 19.98C19.8387 19.98 20.54 20.116 21.1984 20.3736C21.8568 20.6384 22.4294 21.0034 22.9018 21.4615C23.3813 21.9195 23.7533 22.4634 24.0252 23.086C24.2972 23.7086 24.4332 24.3742 24.4332 25.0899V25.1257C24.4332 25.8413 24.2972 26.5069 24.0252 27.1295C23.7533 27.7521 23.3741 28.296 22.8875 28.7612C22.4008 29.2264 21.8282 29.5985 21.1769 29.8705C20.5185 30.1424 19.7957 30.2784 19.0156 30.2784M19.0586 27.8523C19.4665 27.8523 19.8315 27.7808 20.1464 27.6376C20.4613 27.4945 20.7334 27.3013 20.9552 27.0579C21.1771 26.8146 21.3488 26.5283 21.4705 26.1991C21.585 25.8771 21.6494 25.5264 21.6494 25.1543V25.1185C21.6494 24.7463 21.585 24.4028 21.4633 24.0736C21.3416 23.7516 21.1627 23.4582 20.9266 23.2077C20.6904 22.9572 20.4112 22.7568 20.0819 22.6065C19.7599 22.4562 19.4021 22.3847 19.0228 22.3847C18.6149 22.3847 18.2498 22.4562 17.9278 22.5993C17.6129 22.7425 17.341 22.9357 17.1192 23.179C16.8973 23.4224 16.7256 23.7086 16.6111 24.0378C16.4894 24.3599 16.4322 24.7106 16.4322 25.0827V25.1185C16.4322 25.4835 16.4894 25.8342 16.6183 26.1634C16.7399 26.4926 16.926 26.7788 17.155 27.0293C17.3912 27.2798 17.6702 27.4802 17.9851 27.6305C18.3 27.7736 18.6578 27.8523 19.0586 27.8523Z" fill="white"/>
  <path d="M29.0777 16.5806H26.2509V30.0494H29.0777V16.5806Z" fill="white"/>
  <path d="M32.2484 33.0551C31.9907 33.0551 31.7689 33.048 31.59 33.0265C31.4111 33.005 31.2178 32.9764 31.0175 32.9406V30.7436C31.2393 30.7793 31.4398 30.8008 31.6115 30.8008C31.9121 30.8008 32.1483 30.715 32.3343 30.5432C32.5204 30.3714 32.6134 30.078 32.6134 29.6629V20.1589H35.4404V29.8848C35.4404 30.9797 35.1755 31.7813 34.6316 32.2894C34.0877 32.7975 33.2932 33.0551 32.2412 33.0551M32.5491 16.5806H35.5262V19.0711H32.5491V16.5806Z" fill="white"/>
  <path d="M41.3733 30.2355C40.2927 30.2355 39.4554 29.9134 38.8685 29.255C38.2817 28.6038 37.9883 27.7092 37.9883 26.557V20.159H40.8153V25.6624C40.8153 26.328 40.9655 26.8289 41.2589 27.1653C41.5595 27.5017 41.9817 27.6734 42.5256 27.6734C43.0695 27.6734 43.5061 27.5017 43.821 27.1653C44.1359 26.8289 44.2933 26.328 44.2933 25.6624V20.159H47.1273V30.0494H44.2933V28.6324C44.1287 28.8399 43.9569 29.0475 43.7637 29.2336C43.5705 29.4268 43.3559 29.5986 43.1197 29.7417C42.8835 29.892 42.6258 30.0065 42.3396 30.0924C42.0533 30.1783 41.7312 30.2212 41.3733 30.2212" fill="white"/>
  <path d="M54.2978 30.2713C53.5535 30.2713 52.8594 30.1496 52.2224 29.8991C51.5783 29.6558 51.0272 29.3052 50.562 28.8471C50.0969 28.3963 49.7319 27.8524 49.4742 27.2369C49.2166 26.6143 49.0806 25.9201 49.0806 25.1615V25.1257C49.0806 24.4243 49.2022 23.7588 49.4456 23.1361C49.6889 22.5063 50.0254 21.9625 50.4619 21.4973C50.8985 21.0321 51.4137 20.66 52.0148 20.388C52.616 20.1161 53.2816 19.9872 54.0187 19.9872C54.8489 19.9872 55.5717 20.1375 56.18 20.431C56.7884 20.7244 57.2964 21.1251 57.6972 21.6189C58.0979 22.1127 58.3985 22.6853 58.5917 23.3365C58.785 23.9806 58.8781 24.6534 58.8781 25.3547C58.8781 25.4621 58.8781 25.5837 58.8709 25.7054C58.8709 25.827 58.8566 25.9558 58.8423 26.0918H51.8932C52.0292 26.7359 52.3154 27.2154 52.7377 27.5446C53.1671 27.8738 53.6966 28.0313 54.3336 28.0313C54.8059 28.0313 55.2282 27.9525 55.6003 27.7879C55.9725 27.6305 56.3588 27.3729 56.7524 27.015L58.377 28.4392C57.9047 29.0189 57.3322 29.4697 56.6595 29.7918C55.9868 30.1138 55.1995 30.2785 54.2978 30.2785M56.1156 24.3313C56.0297 23.7015 55.8079 23.1934 55.4501 22.807C55.0922 22.4205 54.6127 22.2273 54.0187 22.2273C53.4247 22.2273 52.9381 22.4205 52.5731 22.7998C52.2081 23.1862 51.9648 23.6944 51.8574 24.3313H56.1227H56.1156Z" fill="white"/>
  <path d="M65.52 33.0337C64.697 33.0337 63.9171 32.9478 63.1728 32.7689C62.4285 32.59 61.7342 32.3324 61.1044 32.0031L62.0706 29.8991C62.5931 30.1854 63.1154 30.4001 63.645 30.5647C64.1746 30.7221 64.7686 30.8008 65.4414 30.8008C66.4075 30.8008 67.1303 30.5718 67.5955 30.121C68.0607 29.6629 68.2968 28.9974 68.2968 28.1099V27.6305C67.8746 28.1314 67.4095 28.5322 66.9157 28.8113C66.4219 29.0975 65.792 29.2407 65.0334 29.2407C64.4465 29.2407 63.8884 29.1405 63.3517 28.933C62.8149 28.7326 62.3424 28.432 61.9345 28.0384C61.5266 27.6448 61.1975 27.1653 60.9541 26.5927C60.7108 26.0202 60.5963 25.3618 60.5963 24.6247V24.5889C60.5963 23.8518 60.718 23.1934 60.9685 22.6208C61.219 22.0483 61.5481 21.5688 61.956 21.1752C62.3639 20.7816 62.8363 20.481 63.373 20.2806C63.9026 20.0802 64.4609 19.98 65.0334 19.98C65.7991 19.98 66.4362 20.1231 66.93 20.4023C67.431 20.6885 67.8674 21.0321 68.2539 21.4543V20.1661H71.0879V27.8237C71.0879 29.5842 70.6656 30.8795 69.8211 31.7169C69.3488 32.182 68.7548 32.5256 68.0391 32.7331C67.3235 32.9407 66.4861 33.048 65.5128 33.048M65.8565 26.9076C66.2 26.9076 66.5291 26.8504 66.8225 26.7431C67.116 26.6357 67.3808 26.4711 67.5955 26.2707C67.8102 26.0703 67.9819 25.827 68.1108 25.5407C68.2324 25.2544 68.2968 24.9467 68.2968 24.6175V24.5817C68.2968 24.2525 68.2324 23.9448 68.1108 23.6586C67.9819 23.3723 67.8102 23.1361 67.5955 22.9286C67.3808 22.7282 67.1231 22.5707 66.8225 22.4562C66.522 22.3417 66.2 22.2916 65.8565 22.2916C65.513 22.2916 65.1909 22.3489 64.8974 22.4562C64.604 22.5707 64.3535 22.721 64.1316 22.9286C63.9169 23.1289 63.7452 23.3723 63.6164 23.6586C63.4947 23.9448 63.4303 24.2525 63.4303 24.5817V24.6175C63.4303 25.3046 63.6593 25.8556 64.1173 26.2779C64.5753 26.6929 65.1551 26.9076 65.8493 26.9076" fill="white"/>
  <path d="M89.3144 30.2355C88.6059 30.2355 87.8833 30.1139 87.1461 29.8777C86.409 29.6344 85.7004 29.2622 85.0348 28.7398L86.2444 26.8933C86.7883 27.287 87.332 27.5804 87.8759 27.7736C88.4198 27.974 88.9209 28.067 89.3932 28.067C89.8012 28.067 90.1017 28.0026 90.295 27.8666C90.4882 27.7307 90.5812 27.5517 90.5812 27.3299V27.2941C90.5812 27.1438 90.5239 27.015 90.4094 26.9077C90.3021 26.8003 90.1447 26.7001 89.9515 26.6214C89.7582 26.5427 89.5364 26.4639 89.2931 26.3924C89.0426 26.3208 88.7849 26.2421 88.5058 26.1562C88.1551 26.056 87.8116 25.9344 87.4538 25.7984C87.1031 25.6624 86.781 25.4763 86.4948 25.2473C86.2085 25.0183 85.9795 24.7392 85.7934 24.41C85.6145 24.0808 85.5216 23.6729 85.5216 23.1934V23.1576C85.5216 22.6495 85.6145 22.2058 85.8078 21.8193C86.001 21.4329 86.2587 21.1037 86.5951 20.8317C86.9243 20.5598 87.3106 20.3593 87.7472 20.2234C88.1837 20.0874 88.6632 20.023 89.1713 20.023C89.8011 20.023 90.4452 20.1232 91.0964 20.3236C91.7477 20.524 92.3488 20.8031 92.8927 21.1609L91.8121 23.1003C91.3111 22.8141 90.8318 22.5922 90.3594 22.4276C89.8871 22.263 89.472 22.1772 89.1142 22.1772C88.7564 22.1772 88.5058 22.2415 88.3341 22.3704C88.1623 22.4992 88.0764 22.6638 88.0764 22.857V22.8928C88.0764 23.0288 88.1336 23.1505 88.2481 23.2507C88.3555 23.358 88.5058 23.451 88.6919 23.5441C88.878 23.6371 89.0926 23.723 89.3359 23.8088C89.5792 23.8947 89.8369 23.9806 90.1089 24.0665C90.4524 24.1738 90.8102 24.3098 91.1681 24.4601C91.533 24.6176 91.848 24.8036 92.1414 25.0255C92.4277 25.2473 92.6639 25.5193 92.8499 25.8342C93.036 26.1562 93.129 26.5427 93.129 27.0007V27.0365C93.129 27.5875 93.0288 28.067 92.8356 28.4678C92.6424 28.8686 92.3703 29.1978 92.0268 29.4554C91.6761 29.7131 91.2754 29.9063 90.8102 30.0351C90.345 30.1639 89.844 30.2284 89.3144 30.2284" fill="white"/>
  <path d="M3.92273 1.10809H5.48282L8.77493 8.84439H7.0071L6.30576 7.11963H3.05681L2.3553 8.84439H0.630615L3.92273 1.10809ZM5.69756 5.62392L4.6812 3.13338L3.65785 5.62392H5.69756Z" fill="white"/>
  <path d="M9.62695 6.76893V2.96161H11.2945V6.23935C11.2945 7.02658 11.6666 7.43449 12.3035 7.43449C12.9405 7.43449 13.3484 7.02658 13.3484 6.23935V2.96161H15.0159V8.84437H13.3484V8.00701C12.9619 8.50082 12.4682 8.95169 11.6308 8.95169C10.3641 8.95169 9.63412 8.11438 9.63412 6.76893" fill="white"/>
  <path d="M16.7832 7.17687V4.38577H16.0819V2.96161H16.7832V1.45874H18.4508V2.96161H19.832V4.38577H18.4508V6.89775C18.4508 7.28421 18.6154 7.47027 18.9875 7.47027C19.2953 7.47027 19.5672 7.39156 19.8105 7.26275V8.60103C19.4598 8.80857 19.0518 8.94458 18.4936 8.94458C17.4702 8.94458 16.7832 8.53663 16.7832 7.17687Z" fill="white"/>
  <path d="M20.6118 5.93161V5.91012C20.6118 4.22115 21.9717 2.84711 23.8038 2.84711C25.6359 2.84711 26.9741 4.19255 26.9741 5.88867V5.91012C26.9741 7.59908 25.6144 8.97317 23.7823 8.97317C21.9502 8.97317 20.6118 7.62057 20.6118 5.93161ZM25.3281 5.93161V5.91012C25.3281 5.04417 24.6984 4.28559 23.7752 4.28559C22.852 4.28559 22.2507 5.02272 22.2507 5.88867V5.91012C22.2507 6.77607 22.8734 7.53468 23.7967 7.53468C24.7199 7.53468 25.3209 6.79756 25.3209 5.93161" fill="white"/>
  <path d="M28.1771 2.96159H29.8447V4.14961C30.181 3.33376 30.732 2.81133 31.7196 2.85427V4.60048H31.6338C30.5246 4.60048 29.8447 5.27318 29.8447 6.67588V8.84435H28.1771V2.96159Z" fill="white"/>
  <path d="M32.7925 0.828918H34.546V2.31034H32.7925V0.828918ZM32.8426 2.96158H34.5102V8.84434H32.8426V2.96158Z" fill="white"/>
  <path d="M35.8774 7.67067L38.919 4.30706H35.9777V2.96161H40.9945V4.1353L37.9386 7.49176H40.9945V8.84437H35.8774V7.67067Z" fill="white"/>
  <path d="M41.9031 7.15535V7.13386C41.9031 5.85283 42.8836 5.25883 44.272 5.25883C44.866 5.25883 45.2882 5.359 45.7104 5.50213V5.40197C45.7104 4.70778 45.281 4.32848 44.4509 4.32848C43.8139 4.32848 43.3631 4.45014 42.8263 4.64337L42.4113 3.36947C43.0554 3.08321 43.6923 2.89716 44.6943 2.89716C45.6032 2.89716 46.2616 3.14047 46.6838 3.55555C47.1204 3.99926 47.3207 4.64335 47.3207 5.43058V8.8443H45.7104V8.20735C45.3025 8.65822 44.7443 8.95163 43.9356 8.95163C42.8263 8.95163 41.9174 8.31472 41.9174 7.14819M45.7319 6.76887V6.4683C45.4457 6.33948 45.0735 6.25361 44.6656 6.25361C43.9571 6.25361 43.5133 6.53988 43.5133 7.06231V7.08376C43.5133 7.53463 43.8855 7.79226 44.4222 7.79226C45.2023 7.79226 45.7319 7.36286 45.7319 6.7617" fill="white"/>
  <path d="M7.35878 30.2713C6.39979 30.2713 5.51222 30.0995 4.69637 29.756C3.87336 29.4124 3.16487 28.9401 2.57087 28.3461C1.97687 27.7521 1.50457 27.0436 1.17537 26.2349C0.839006 25.4191 0.674438 24.5531 0.674438 23.6299V23.5941C0.674438 22.6709 0.846162 21.805 1.17537 21.0034C1.51173 20.1947 1.97687 19.4934 2.57087 18.8851C3.16487 18.2767 3.88053 17.7972 4.71069 17.4466C5.54086 17.0959 6.46413 16.917 7.46606 16.917C8.07437 16.917 8.63265 16.9671 9.13361 17.0601C9.63457 17.1603 10.0925 17.2963 10.5076 17.4681C10.9155 17.6398 11.2949 17.8474 11.6456 18.0979C11.9891 18.3483 12.3182 18.6131 12.6116 18.9137L10.7867 20.9963C10.2785 20.5454 9.75615 20.1804 9.22656 19.9228C8.70413 19.6651 8.11014 19.5363 7.45173 19.5363C6.90783 19.5363 6.39963 19.6365 5.93445 19.8512C5.46927 20.0588 5.06854 20.345 4.73218 20.7172C4.39582 21.0893 4.1383 21.5116 3.95222 21.9982C3.76615 22.4849 3.67302 23.0001 3.67302 23.5584V23.5941C3.67302 24.1452 3.76615 24.6748 3.95222 25.1614C4.1383 25.6552 4.39582 26.0846 4.72502 26.4496C5.05422 26.8218 5.44795 27.108 5.91313 27.3299C6.37831 27.5446 6.89352 27.6519 7.45173 27.6519C8.19602 27.6519 8.82573 27.5159 9.341 27.244C9.85628 26.972 10.3645 26.6071 10.8798 26.1347L12.7048 27.9596C12.3684 28.3175 12.0247 28.6395 11.6597 28.9187C11.3019 29.1978 10.9084 29.4411 10.479 29.6486C10.0496 29.849 9.57726 30.0064 9.06914 30.1066C8.56102 30.214 7.98856 30.2641 7.35878 30.2641" fill="white"/>
  <path d="M19.0228 30.2713C18.2499 30.2713 17.5342 30.1424 16.883 29.8777C16.2246 29.6129 15.6593 29.2479 15.1798 28.7898C14.7003 28.3318 14.3281 27.7879 14.049 27.1653C13.777 26.5426 13.641 25.8771 13.641 25.1614V25.1257C13.641 24.41 13.777 23.7444 14.049 23.1218C14.3209 22.4992 14.7003 21.9553 15.1869 21.4901C15.6736 21.0249 16.246 20.6528 16.8973 20.3808C17.5557 20.1089 18.2785 19.98 19.0586 19.98C19.8387 19.98 20.54 20.116 21.1984 20.3736C21.8568 20.6384 22.4294 21.0034 22.9018 21.4615C23.3813 21.9195 23.7533 22.4634 24.0252 23.086C24.2972 23.7086 24.4332 24.3742 24.4332 25.0899V25.1257C24.4332 25.8413 24.2972 26.5069 24.0252 27.1295C23.7533 27.7521 23.3741 28.296 22.8875 28.7612C22.4008 29.2264 21.8282 29.5985 21.1769 29.8705C20.5185 30.1424 19.7957 30.2784 19.0156 30.2784M19.0586 27.8523C19.4665 27.8523 19.8315 27.7808 20.1464 27.6376C20.4613 27.4945 20.7334 27.3013 20.9552 27.0579C21.1771 26.8146 21.3488 26.5283 21.4705 26.1991C21.585 25.8771 21.6494 25.5264 21.6494 25.1543V25.1185C21.6494 24.7463 21.585 24.4028 21.4633 24.0736C21.3416 23.7516 21.1627 23.4582 20.9266 23.2077C20.6904 22.9572 20.4112 22.7568 20.0819 22.6065C19.7599 22.4562 19.4021 22.3847 19.0228 22.3847C18.6149 22.3847 18.2498 22.4562 17.9278 22.5993C17.6129 22.7425 17.341 22.9357 17.1192 23.179C16.8973 23.4224 16.7256 23.7086 16.6111 24.0378C16.4894 24.3599 16.4322 24.7106 16.4322 25.0827V25.1185C16.4322 25.4835 16.4894 25.8342 16.6183 26.1634C16.7399 26.4926 16.926 26.7788 17.155 27.0293C17.3912 27.2798 17.6702 27.4802 17.9851 27.6305C18.3 27.7736 18.6578 27.8523 19.0586 27.8523Z" fill="white"/>
  <path d="M29.0789 16.5806H26.2521V30.0494H29.0789V16.5806Z" fill="white"/>
  <path d="M32.2484 33.0551C31.9907 33.0551 31.7689 33.048 31.59 33.0265C31.4111 33.005 31.2178 32.9764 31.0175 32.9406V30.7436C31.2393 30.7793 31.4398 30.8008 31.6115 30.8008C31.9121 30.8008 32.1483 30.715 32.3343 30.5432C32.5204 30.3714 32.6134 30.078 32.6134 29.6629V20.1589H35.4404V29.8848C35.4404 30.9797 35.1755 31.7813 34.6316 32.2894C34.0877 32.7975 33.2932 33.0551 32.2412 33.0551M32.5491 16.5806H35.5262V19.0711H32.5491V16.5806Z" fill="white"/>
  <path d="M41.3733 30.2355C40.2927 30.2355 39.4554 29.9134 38.8685 29.255C38.2817 28.6038 37.9883 27.7092 37.9883 26.557V20.159H40.8153V25.6624C40.8153 26.328 40.9655 26.8289 41.2589 27.1653C41.5595 27.5017 41.9817 27.6734 42.5256 27.6734C43.0695 27.6734 43.5061 27.5017 43.821 27.1653C44.1359 26.8289 44.2933 26.328 44.2933 25.6624V20.159H47.1273V30.0494H44.2933V28.6324C44.1287 28.8399 43.9569 29.0475 43.7637 29.2336C43.5705 29.4268 43.3559 29.5986 43.1197 29.7417C42.8835 29.892 42.6258 30.0065 42.3396 30.0924C42.0533 30.1783 41.7312 30.2212 41.3733 30.2212" fill="white"/>
  <path d="M54.2989 30.2713C53.5546 30.2713 52.8605 30.1496 52.2235 29.8991C51.5794 29.6558 51.0283 29.3052 50.5631 28.8471C50.098 28.3963 49.733 27.8524 49.4753 27.2369C49.2177 26.6143 49.0817 25.9201 49.0817 25.1615V25.1257C49.0817 24.4243 49.2033 23.7588 49.4467 23.1361C49.69 22.5063 50.0265 21.9625 50.463 21.4973C50.8996 21.0321 51.4148 20.66 52.0159 20.388C52.6171 20.1161 53.2827 19.9872 54.0198 19.9872C54.85 19.9872 55.5728 20.1375 56.1811 20.431C56.7895 20.7244 57.2975 21.1251 57.6983 21.6189C58.099 22.1127 58.3996 22.6853 58.5928 23.3365C58.7861 23.9806 58.8792 24.6534 58.8792 25.3547C58.8792 25.4621 58.8792 25.5837 58.872 25.7054C58.872 25.827 58.8577 25.9558 58.8434 26.0918H51.8943C52.0303 26.7359 52.3165 27.2154 52.7388 27.5446C53.1682 27.8738 53.6977 28.0313 54.3347 28.0313C54.807 28.0313 55.2293 27.9525 55.6014 27.7879C55.9736 27.6305 56.3599 27.3729 56.7535 27.015L58.3781 28.4392C57.9058 29.0189 57.3333 29.4697 56.6606 29.7918C55.9879 30.1138 55.2006 30.2785 54.2989 30.2785M56.1167 24.3313C56.0308 23.7015 55.809 23.1934 55.4512 22.807C55.0933 22.4205 54.6138 22.2273 54.0198 22.2273C53.4258 22.2273 52.9392 22.4205 52.5742 22.7998C52.2092 23.1862 51.9659 23.6944 51.8585 24.3313H56.1238H56.1167Z" fill="white"/>
  <path d="M65.52 33.0337C64.697 33.0337 63.9171 32.9478 63.1728 32.7689C62.4285 32.59 61.7342 32.3324 61.1044 32.0031L62.0706 29.8991C62.5931 30.1854 63.1154 30.4001 63.645 30.5647C64.1746 30.7221 64.7686 30.8008 65.4414 30.8008C66.4075 30.8008 67.1303 30.5718 67.5955 30.121C68.0607 29.6629 68.2968 28.9974 68.2968 28.1099V27.6305C67.8746 28.1314 67.4095 28.5322 66.9157 28.8113C66.4219 29.0975 65.792 29.2407 65.0334 29.2407C64.4465 29.2407 63.8884 29.1405 63.3517 28.933C62.8149 28.7326 62.3424 28.432 61.9345 28.0384C61.5266 27.6448 61.1975 27.1653 60.9541 26.5927C60.7108 26.0202 60.5963 25.3618 60.5963 24.6247V24.5889C60.5963 23.8518 60.718 23.1934 60.9685 22.6208C61.219 22.0483 61.5481 21.5688 61.956 21.1752C62.3639 20.7816 62.8363 20.481 63.373 20.2806C63.9026 20.0802 64.4609 19.98 65.0334 19.98C65.7991 19.98 66.4362 20.1231 66.93 20.4023C67.431 20.6885 67.8674 21.0321 68.2539 21.4543V20.1661H71.0879V27.8237C71.0879 29.5842 70.6656 30.8795 69.8211 31.7169C69.3488 32.182 68.7548 32.5256 68.0391 32.7331C67.3235 32.9407 66.4861 33.048 65.5128 33.048M65.8565 26.9076C66.2 26.9076 66.5291 26.8504 66.8225 26.7431C67.116 26.6357 67.3808 26.4711 67.5955 26.2707C67.8102 26.0703 67.9819 25.827 68.1108 25.5407C68.2324 25.2544 68.2968 24.9467 68.2968 24.6175V24.5817C68.2968 24.2525 68.2324 23.9448 68.1108 23.6586C67.9819 23.3723 67.8102 23.1361 67.5955 22.9286C67.3808 22.7282 67.1231 22.5707 66.8225 22.4562C66.522 22.3417 66.2 22.2916 65.8565 22.2916C65.513 22.2916 65.1909 22.3489 64.8974 22.4562C64.604 22.5707 64.3535 22.721 64.1316 22.9286C63.9169 23.1289 63.7452 23.3723 63.6164 23.6586C63.4947 23.9448 63.4303 24.2525 63.4303 24.5817V24.6175C63.4303 25.3046 63.6593 25.8556 64.1173 26.2779C64.5753 26.6929 65.1551 26.9076 65.8493 26.9076" fill="white"/>
  <path d="M89.3157 30.2355C88.6071 30.2355 87.8845 30.1139 87.1474 29.8777C86.4102 29.6344 85.7016 29.2622 85.036 28.7398L86.2456 26.8933C86.7895 27.287 87.3333 27.5804 87.8772 27.7736C88.4211 27.974 88.9221 28.067 89.3945 28.067C89.8024 28.067 90.103 28.0026 90.2962 27.8666C90.4894 27.7307 90.5824 27.5517 90.5824 27.3299V27.2941C90.5824 27.1438 90.5251 27.015 90.4106 26.9077C90.3033 26.8003 90.1459 26.7001 89.9527 26.6214C89.7595 26.5427 89.5377 26.4639 89.2943 26.3924C89.0439 26.3208 88.7861 26.2421 88.507 26.1562C88.1564 26.056 87.8129 25.9344 87.455 25.7984C87.1044 25.6624 86.7823 25.4763 86.496 25.2473C86.2097 25.0183 85.9807 24.7392 85.7947 24.41C85.6157 24.0808 85.5228 23.6729 85.5228 23.1934V23.1576C85.5228 22.6495 85.6158 22.2058 85.809 21.8193C86.0022 21.4329 86.2599 21.1037 86.5963 20.8317C86.9255 20.5598 87.3118 20.3593 87.7484 20.2234C88.1849 20.0874 88.6644 20.023 89.1726 20.023C89.8023 20.023 90.4464 20.1232 91.0976 20.3236C91.7489 20.524 92.3501 20.8031 92.894 21.1609L91.8133 23.1003C91.3123 22.8141 90.833 22.5922 90.3607 22.4276C89.8883 22.263 89.4733 22.1772 89.1154 22.1772C88.7576 22.1772 88.507 22.2415 88.3353 22.3704C88.1635 22.4992 88.0776 22.6638 88.0776 22.857V22.8928C88.0776 23.0288 88.1348 23.1505 88.2493 23.2507C88.3567 23.358 88.507 23.451 88.6931 23.5441C88.8792 23.6371 89.0938 23.723 89.3371 23.8088C89.5805 23.8947 89.8382 23.9806 90.1101 24.0665C90.4536 24.1738 90.8114 24.3098 91.1693 24.4601C91.5343 24.6176 91.8492 24.8036 92.1427 25.0255C92.4289 25.2473 92.6651 25.5193 92.8512 25.8342C93.0372 26.1562 93.1302 26.5427 93.1302 27.0007V27.0365C93.1302 27.5875 93.0301 28.067 92.8368 28.4678C92.6436 28.8686 92.3716 29.1978 92.028 29.4554C91.6774 29.7131 91.2766 29.9063 90.8114 30.0351C90.3463 30.1639 89.8452 30.2284 89.3157 30.2284" fill="white"/>
  <path d="M3.92273 1.10809H5.48282L8.77493 8.84439H7.0071L6.30576 7.11963H3.05681L2.3553 8.84439H0.630615L3.92273 1.10809ZM5.69756 5.62392L4.6812 3.13338L3.65785 5.62392H5.69756Z" fill="white"/>
  <path d="M9.62695 6.76893V2.96161H11.2945V6.23935C11.2945 7.02658 11.6666 7.43449 12.3035 7.43449C12.9405 7.43449 13.3484 7.02658 13.3484 6.23935V2.96161H15.0159V8.84437H13.3484V8.00701C12.9619 8.50082 12.4682 8.95169 11.6308 8.95169C10.3641 8.95169 9.63412 8.11438 9.63412 6.76893" fill="white"/>
  <path d="M16.7832 7.17687V4.38577H16.0819V2.96161H16.7832V1.45874H18.4508V2.96161H19.832V4.38577H18.4508V6.89775C18.4508 7.28421 18.6154 7.47027 18.9875 7.47027C19.2953 7.47027 19.5672 7.39156 19.8105 7.26275V8.60103C19.4598 8.80857 19.0518 8.94458 18.4936 8.94458C17.4702 8.94458 16.7832 8.53663 16.7832 7.17687Z" fill="white"/>
  <path d="M20.6118 5.93161V5.91012C20.6118 4.22115 21.9717 2.84711 23.8038 2.84711C25.6359 2.84711 26.9741 4.19255 26.9741 5.88867V5.91012C26.9741 7.59908 25.6144 8.97317 23.7823 8.97317C21.9502 8.97317 20.6118 7.62057 20.6118 5.93161ZM25.3281 5.93161V5.91012C25.3281 5.04417 24.6984 4.28559 23.7752 4.28559C22.852 4.28559 22.2507 5.02272 22.2507 5.88867V5.91012C22.2507 6.77607 22.8734 7.53468 23.7967 7.53468C24.7199 7.53468 25.3209 6.79756 25.3209 5.93161" fill="white"/>
  <path d="M28.1771 2.96159H29.8447V4.14961C30.181 3.33376 30.732 2.81133 31.7196 2.85427V4.60048H31.6338C30.5246 4.60048 29.8447 5.27318 29.8447 6.67588V8.84435H28.1771V2.96159Z" fill="white"/>
  <path d="M32.7925 0.828918H34.546V2.31034H32.7925V0.828918ZM32.8426 2.96158H34.5102V8.84434H32.8426V2.96158Z" fill="white"/>
  <path d="M35.8774 7.67067L38.919 4.30706H35.9777V2.96161H40.9945V4.1353L37.9386 7.49176H40.9945V8.84437H35.8774V7.67067Z" fill="white"/>
  <path d="M41.9031 7.15535V7.13386C41.9031 5.85283 42.8836 5.25883 44.272 5.25883C44.866 5.25883 45.2882 5.359 45.7104 5.50213V5.40197C45.7104 4.70778 45.281 4.32848 44.4509 4.32848C43.8139 4.32848 43.3631 4.45014 42.8263 4.64337L42.4113 3.36947C43.0554 3.08321 43.6923 2.89716 44.6943 2.89716C45.6032 2.89716 46.2616 3.14047 46.6838 3.55555C47.1204 3.99926 47.3207 4.64335 47.3207 5.43058V8.8443H45.7104V8.20735C45.3025 8.65822 44.7443 8.95163 43.9356 8.95163C42.8263 8.95163 41.9174 8.31472 41.9174 7.14819M45.7319 6.76887V6.4683C45.4457 6.33948 45.0735 6.25361 44.6656 6.25361C43.9571 6.25361 43.5133 6.53988 43.5133 7.06231V7.08376C43.5133 7.53463 43.8855 7.79226 44.4222 7.79226C45.2023 7.79226 45.7319 7.36286 45.7319 6.7617" fill="white"/>
  <path d="M81.0628 20.7028C80.9197 20.9819 80.9052 21.3111 80.9052 21.8765C80.9052 22.4418 80.8623 26.9935 77.5345 30.171C77.5345 30.171 76.5182 31.1085 78.2859 31.1085C81.2917 31.1085 83.7322 28.6968 83.7322 25.7125C83.7322 25.0254 83.6034 24.3598 83.3672 23.7587C83.3672 23.7587 83.2597 23.4939 83.0737 23.5082C82.8876 23.5225 82.8663 23.8803 82.8591 24.2453C82.8448 24.8823 82.6729 26.0918 81.8284 27.5875C81.4777 28.2101 81.2989 28.389 80.9768 28.2817C80.9768 28.2817 80.6189 28.2101 80.9052 27.659C81.1915 27.108 82.3152 24.7248 82.1148 21.9337C82.0146 20.5525 81.7927 20.1661 81.5709 20.1661C81.349 20.1661 81.1344 20.5668 81.0556 20.7099" fill="white"/>
  <mask id="mask0_19_1523" style="mask-type:luminance" maskUnits="userSpaceOnUse" x="77" y="20" width="7" height="12">
    <path d="M81.0621 20.7028C80.9189 20.9819 80.9045 21.3111 80.9045 21.8765C80.9045 22.4418 80.8615 26.9935 77.5337 30.171C77.5337 30.171 76.5175 31.1085 78.2852 31.1085C81.291 31.1085 83.7315 28.6968 83.7315 25.7125C83.7315 25.0254 83.6026 24.3598 83.3665 23.7587C83.3665 23.7587 83.259 23.4939 83.0729 23.5082C82.8869 23.5225 82.8655 23.8803 82.8584 24.2453C82.8441 24.8823 82.6722 26.0918 81.8277 27.5875C81.477 28.2101 81.2981 28.389 80.9761 28.2817C80.9761 28.2817 80.6182 28.2101 80.9045 27.659C81.1907 27.108 82.3144 24.7248 82.1141 21.9337C82.0139 20.5525 81.792 20.1661 81.5702 20.1661C81.3483 20.1661 81.1336 20.5668 81.0549 20.7099" fill="white"/>
  </mask>
  <g mask="url(#mask0_19_1523)">
    <path d="M80.1256 16.5488L71.042 25.6324L80.1256 34.716L89.2091 25.6324L80.1256 16.5488Z" fill="white"/>
  </g>
  <path d="M79.1527 19.565C78.7233 20.0159 78.4227 20.4524 78.437 21.2826C78.4513 22.1128 78.3798 27.1295 75.2452 29.3195C75.2452 29.3195 74.6942 29.6057 74.4366 29.9564C74.0859 30.4287 74.0643 30.9941 74.8229 30.851C74.8229 30.851 76.7482 30.4788 78.0292 28.2889C79.4105 25.9129 80.1046 23.7731 79.7539 20.2234C79.7539 20.2234 79.6394 19.4648 79.3531 19.4648C79.2958 19.4648 79.2314 19.4934 79.1599 19.5721" fill="white"/>
  <mask id="mask1_19_1523" style="mask-type:luminance" maskUnits="userSpaceOnUse" x="74" y="19" width="6" height="12">
    <path d="M79.1534 19.565C78.724 20.0159 78.4235 20.4524 78.4378 21.2826C78.4521 22.1128 78.3805 27.1295 75.2459 29.3195C75.2459 29.3195 74.695 29.6057 74.4373 29.9564C74.0867 30.4287 74.065 30.9941 74.8236 30.851C74.8236 30.851 76.7489 30.4788 78.03 28.2889C79.4112 25.9129 80.1053 23.7731 79.7546 20.2234C79.7546 20.2234 79.6401 19.4648 79.3538 19.4648C79.2966 19.4648 79.2322 19.4934 79.1606 19.5721" fill="white"/>
  </mask>
  <g mask="url(#mask1_19_1523)">
    <path d="M80.1108 19.4506H74.0707V30.987H80.1108V19.4506Z" fill="white"/>
  </g>
  <path d="M76.5762 19.9657C74.4006 20.6742 72.8262 22.6996 72.8262 25.0899C72.8262 26.192 73.1482 27.2297 73.7351 28.0742C73.9712 28.4177 74.6225 27.9311 74.6225 27.9311C77.3849 25.7912 77.4993 21.6833 77.5136 20.5955C77.5136 20.0015 77.2345 19.8655 76.9769 19.8655C76.7622 19.8655 76.5691 19.9586 76.5691 19.9586" fill="white"/>
</svg>